<svg xmlns="http://www.w3.org/2000/svg" version="1.1" xmlns:xlink="http://www.w3.org/1999/xlink" xmlns:svgjs="http://svgjs.com/svgjs" width="1440" height="560" preserveAspectRatio="none" viewBox="0 0 1440 560"><g mask="url(&quot;#SvgjsMask1039&quot;)" fill="none"><rect width="1440" height="560" x="0" y="0" fill="#0e2a47"></rect><path d="M1024.173319899883 653.4339154997256L1092.2860719030339 513.7820784071272 952.6342348104355 445.66932640397624 884.5214828072845 585.3211634965746z" fill="rgba(28, 83, 142, 0.4)" class="triangle-float3"></path><path d="M368.204,366.876C385.085,366.625,401.79,360.137,410.411,345.621C419.201,330.82,417.723,312.536,409.437,297.446C400.799,281.715,386.131,267.901,368.204,268.754C351.215,269.563,341.657,286.287,333.251,301.072C324.986,315.609,315.925,332.139,323.769,346.907C331.933,362.277,350.802,367.134,368.204,366.876" fill="rgba(28, 83, 142, 0.4)" class="triangle-float1"></path><path d="M1307.4059838915912 249.91239062827032L1237.750058318446 118.90864793466176 1106.7463156248373 188.56457350780704 1176.4022411979827 319.5683162014156z" fill="rgba(28, 83, 142, 0.4)" class="triangle-float3"></path><path d="M-83.31 236.06 a94.67 94.67 0 1 0 189.34 0 a94.67 94.67 0 1 0 -189.34 0z" fill="rgba(28, 83, 142, 0.4)" class="triangle-float3"></path><path d="M300.641,410.356C315.927,410.677,329.187,400.586,336.66,387.248C343.958,374.223,344.119,358.584,337.004,345.458C329.524,331.658,316.337,320.609,300.641,320.798C285.203,320.984,272.836,332.592,265.764,346.316C259.3,358.859,260.401,373.396,267.15,385.788C274.247,398.82,285.805,410.045,300.641,410.356" fill="rgba(28, 83, 142, 0.4)" class="triangle-float2"></path><path d="M1197.08,324.604C1232.924,323.3,1263.196,298.786,1279.024,266.599C1293.146,237.879,1284.764,205.61,1269.399,177.536C1253.209,147.956,1230.745,118.821,1197.08,116.881C1160.622,114.78,1127.414,136.904,1108.727,168.279C1089.571,200.442,1085.701,240.37,1104.12,272.96C1122.814,306.035,1159.113,325.985,1197.08,324.604" fill="rgba(28, 83, 142, 0.4)" class="triangle-float1"></path><path d="M185.863,636.332C214.889,635.97,243.388,625.098,258.78,600.487C275.114,574.371,276.652,541.519,262.163,514.336C246.773,485.464,218.576,464.287,185.863,463.689C152.183,463.073,120.783,481.926,104.569,511.453C88.914,539.963,91.982,575.087,109.726,602.345C125.977,627.309,156.077,636.703,185.863,636.332" fill="rgba(28, 83, 142, 0.4)" class="triangle-float1"></path><path d="M998.3290634428853 108.86812728120617L1121.5999486267144 192.01538921640378 1204.7472105619122 68.74450403257454 1081.476325378083-14.402757902623065z" fill="rgba(28, 83, 142, 0.4)" class="triangle-float1"></path></g><defs><mask id="SvgjsMask1039"><rect width="1440" height="560" fill="#ffffff"></rect></mask><style>
            @keyframes float1 {
                0%{transform: translate(0, 0)}
                50%{transform: translate(-10px, 0)}
                100%{transform: translate(0, 0)}
            }

            .triangle-float1 {
                animation: float1 5s infinite;
            }

            @keyframes float2 {
                0%{transform: translate(0, 0)}
                50%{transform: translate(-5px, -5px)}
                100%{transform: translate(0, 0)}
            }

            .triangle-float2 {
                animation: float2 4s infinite;
            }

            @keyframes float3 {
                0%{transform: translate(0, 0)}
                50%{transform: translate(0, -10px)}
                100%{transform: translate(0, 0)}
            }

            .triangle-float3 {
                animation: float3 6s infinite;
            }
        </style></defs></svg>