<svg xmlns="http://www.w3.org/2000/svg" version="1.1" xmlns:xlink="http://www.w3.org/1999/xlink" xmlns:svgjs="http://svgjs.com/svgjs" width="1440" height="560" preserveAspectRatio="none" viewBox="0 0 1440 560"><g mask="url(&quot;#SvgjsMask1000&quot;)" fill="none"><rect width="1440" height="560" x="0" y="0" fill="#0e2a47"></rect><path d="M0,334.37C67.613,345.331,142.657,348.669,199.985,311.183C257.21,273.764,275.254,200.807,301.078,137.498C325.883,76.685,361.704,14.142,347.283,-49.932C333.11,-112.907,268.563,-147.301,226.048,-195.872C183.795,-244.144,158.119,-311.532,98.212,-334.48C37.101,-357.889,-31.325,-338.828,-93.449,-318.259C-153.993,-298.213,-213.024,-268.852,-252.14,-218.481C-290.259,-169.395,-291.757,-104.454,-306.387,-44.052C-322.726,23.405,-373.344,94.219,-342.999,156.642C-312.568,219.24,-224.045,220.437,-162.246,252.459C-107.343,280.908,-61.039,324.475,0,334.37" fill="#0a1e33"></path><path d="M1440 1203.633C1561.641 1214.558 1679.904 1159.075 1780.405 1089.6799999999998 1878.779 1021.754 1979.982 933.902 2001.06 816.2280000000001 2021.47 702.288 1897.33 611.034 1886.791 495.76099999999997 1875.299 370.06100000000004 2012.183 230.58100000000002 1938.1689999999999 128.334 1866.397 29.184999999999945 1704.295 85.767 1582.353 75.19200000000001 1485.602 66.80200000000002 1392.982 58.45100000000002 1296.923 72.726 1186.962 89.06599999999997 1046.73 72.96199999999999 983.246 164.22000000000003 918.491 257.305 1008.7470000000001 383.81399999999996 1001.779 496.993 995.62 597.039 920.438 688.887 944.962 786.076 970.914 888.921 1055.67 963.482 1136.748 1031.87 1227.385 1108.321 1321.901 1193.0259999999998 1440 1203.633" fill="#12365b"></path></g><defs><mask id="SvgjsMask1000"><rect width="1440" height="560" fill="#ffffff"></rect></mask></defs></svg>