<?xml version="1.0" standalone="no"?>
<svg xmlns:xlink="http://www.w3.org/1999/xlink" id="wave" style="transform:rotate(0deg); transition: 0.3s" viewBox="0 0 1440 490" version="1.1" xmlns="http://www.w3.org/2000/svg"><defs><linearGradient id="sw-gradient-0" x1="0" x2="0" y1="1" y2="0"><stop stop-color="rgba(41, 98, 255, 1)" offset="0%"/><stop stop-color="rgba(68, 138, 255, 1)" offset="100%"/></linearGradient></defs><path style="transform:translate(0, 0px); opacity:1" fill="url(#sw-gradient-0)" d="M0,245L12,277.7C24,310,48,376,72,392C96,408,120,376,144,367.5C168,359,192,376,216,359.3C240,343,264,294,288,253.2C312,212,336,180,360,155.2C384,131,408,114,432,98C456,82,480,65,504,81.7C528,98,552,147,576,163.3C600,180,624,163,648,179.7C672,196,696,245,720,277.7C744,310,768,327,792,294C816,261,840,180,864,163.3C888,147,912,196,936,179.7C960,163,984,82,1008,40.8C1032,0,1056,0,1080,0C1104,0,1128,0,1152,57.2C1176,114,1200,229,1224,228.7C1248,229,1272,114,1296,89.8C1320,65,1344,131,1368,187.8C1392,245,1416,294,1440,334.8C1464,376,1488,408,1512,367.5C1536,327,1560,212,1584,171.5C1608,131,1632,163,1656,220.5C1680,278,1704,359,1716,400.2L1728,441L1728,490L1716,490C1704,490,1680,490,1656,490C1632,490,1608,490,1584,490C1560,490,1536,490,1512,490C1488,490,1464,490,1440,490C1416,490,1392,490,1368,490C1344,490,1320,490,1296,490C1272,490,1248,490,1224,490C1200,490,1176,490,1152,490C1128,490,1104,490,1080,490C1056,490,1032,490,1008,490C984,490,960,490,936,490C912,490,888,490,864,490C840,490,816,490,792,490C768,490,744,490,720,490C696,490,672,490,648,490C624,490,600,490,576,490C552,490,528,490,504,490C480,490,456,490,432,490C408,490,384,490,360,490C336,490,312,490,288,490C264,490,240,490,216,490C192,490,168,490,144,490C120,490,96,490,72,490C48,490,24,490,12,490L0,490Z"/></svg>